<?xml version="1.0" encoding="iso-8859-1"?>
<!-- Generator: Adobe Illustrator 19.0.0, SVG Export Plug-In . SVG Version: 6.00 Build 0)  -->
<svg version="1.1" id="Layer_1" xmlns="http://www.w3.org/2000/svg" xmlns:xlink="http://www.w3.org/1999/xlink" x="0px" y="0px"
	 viewBox="0 0 512 512" style="enable-background:new 0 0 512 512;" xml:space="preserve">
<g>
	<g>
		<path style="fill:#CE9541;" d="M511.689,198.621c0.194,2.648,0.309,5.305,0.309,7.98v-7.98H511.689z"/>
		<path style="fill:#CE9541;" d="M256,375.172c-141.383,0-256-76.65-256-168.572v106.778c7.706,87.561,119.605,158.897,256,158.897
			s248.294-71.336,256-158.897V206.601C512,298.522,397.383,375.172,256,375.172"/>
		<path style="fill:#CE9541;" d="M0,198.621v7.98c0-2.675,0.115-5.332,0.309-7.98H0z"/>
	</g>
	<path style="fill:#EEAF4B;" d="M256,39.724c-141.383,0-256,74.955-256,166.877s114.617,168.572,256,168.572s256-76.65,256-168.572
		S397.383,39.724,256,39.724"/>
	<path style="fill:#6A3311;" d="M450.897,226.876L450.897,226.876c-20.736-11.414-20.789-30.199-0.132-41.737
		c35.407-18.282,11.679-50.564-33.156-48.852c-27.083,0.936-48.181-9.304-46.848-25.944c1.933-27.56-50.988-48.322-79.448-26.483
		l-14.724,12.032c-5.658,3.875-13.118,5.835-20.586,5.897c-7.477-0.062-14.927-2.022-20.586-5.897L220.691,83.86
		c-28.469-21.839-81.382-1.077-79.448,26.483c1.333,16.64-19.774,26.88-46.857,25.944c-44.826-1.713-68.555,30.57-33.156,48.852
		c20.665,11.538,20.604,30.323-0.124,41.737l0,0c-36.449,22.307-9.622,54.969,35.999,51.191
		c27.092-0.768,45.568,9.852,44.138,26.483c-3.231,32.477,50.105,49.196,80.296,21.557l7.424-5.023
		c7.433-5.023,17.258-7.45,27.039-7.345c9.781-0.106,19.597,2.322,27.03,7.345l7.433,5.023c30.19,27.639,83.527,10.92,80.296-21.557
		c-1.439-16.631,17.046-27.251,44.138-26.483C460.51,281.845,487.337,249.183,450.897,226.876"/>
</g>
<g>
</g>
<g>
</g>
<g>
</g>
<g>
</g>
<g>
</g>
<g>
</g>
<g>
</g>
<g>
</g>
<g>
</g>
<g>
</g>
<g>
</g>
<g>
</g>
<g>
</g>
<g>
</g>
<g>
</g>
</svg>
