<?xml version="1.0" encoding="iso-8859-1"?>
<!-- Generator: Adobe Illustrator 19.0.0, SVG Export Plug-In . SVG Version: 6.00 Build 0)  -->
<svg version="1.1" id="Layer_1" xmlns="http://www.w3.org/2000/svg" xmlns:xlink="http://www.w3.org/1999/xlink" x="0px" y="0px"
	 viewBox="0 0 512 512" style="enable-background:new 0 0 512 512;" xml:space="preserve">
<path style="fill:#BF4F28;" d="M301.382,48.213l36.676,74.315c7.372,14.936,21.621,25.29,38.105,27.685l82.011,11.916
	c41.51,6.031,58.085,57.043,28.048,86.322l-59.344,57.846c-11.928,11.627-17.37,28.378-14.555,44.794l14.009,81.68
	c7.091,41.342-36.302,72.869-73.43,53.35l-73.352-38.563c-14.743-7.751-32.356-7.751-47.1,0l-73.352,38.563
	c-37.128,19.519-80.521-12.007-73.43-53.35l14.009-81.68c2.816-16.417-2.627-33.168-14.555-44.794L25.779,248.45
	c-30.037-29.279-13.462-80.29,28.048-86.322l82.011-11.916c16.484-2.395,30.733-12.748,38.105-27.685l36.676-74.315
	C229.182,10.598,282.818,10.598,301.382,48.213z"/>
<path style="fill:#FFDF9F;" d="M221.944,105.825l-27.524,55.768c-5.532,11.209-16.225,18.978-28.595,20.775l-61.544,8.943
	c-31.151,4.527-43.588,42.807-21.048,64.779l44.533,43.409c8.951,8.725,13.036,21.296,10.923,33.616l-10.513,61.295
	c-5.321,31.024,27.243,54.684,55.104,40.036l55.046-28.94c11.064-5.816,24.281-5.816,35.345,0l55.046,28.94
	c27.862,14.648,60.426-9.012,55.104-40.036l-10.513-61.295c-2.113-12.32,1.972-24.89,10.923-33.616l44.533-43.409
	c22.54-21.972,10.102-60.252-21.048-64.779l-61.544-8.943c-12.37-1.797-23.063-9.566-28.595-20.775l-27.524-55.768
	C276.126,77.598,235.875,77.598,221.944,105.825z"/>
<path d="M376.51,502.448c-9.705,0-19.457-2.34-28.47-7.078l-73.352-38.563c-11.701-6.152-25.673-6.152-37.375,0L163.96,495.37
	c-20.724,10.893-45.362,9.113-64.302-4.648c-18.939-13.761-28.247-36.644-24.29-59.718l14.008-81.68
	c2.235-13.03-2.083-26.319-11.55-35.546l-59.344-57.846C1.72,239.592-4.201,215.609,3.034,193.343s26.121-38.188,49.29-41.555
	l82.011-11.916c13.083-1.902,24.386-10.114,30.237-21.969l36.676-74.315C211.609,22.594,232.588,9.552,256,9.552
	s44.391,13.042,54.753,34.036l36.676,74.315c5.851,11.855,17.155,20.067,30.237,21.969l82.011,11.916
	c23.168,3.367,42.056,19.29,49.29,41.555c7.234,22.266,1.315,46.249-15.45,62.591l-59.344,57.846
	c-9.467,9.228-13.784,22.515-11.55,35.546l14.008,81.68c3.958,23.074-5.349,45.956-24.29,59.718
	C401.64,498.497,389.116,502.448,376.51,502.448z M256,431.293c9.759,0,19.517,2.339,28.412,7.015l73.352,38.564
	c13.836,7.273,29.647,6.131,42.293-3.056c12.646-9.188,18.618-23.872,15.976-39.278l-14.008-81.68
	c-3.398-19.81,3.166-40.014,17.56-54.044l59.344-57.846c11.193-10.911,14.993-26.3,10.162-41.166
	c-4.831-14.867-16.95-25.084-32.419-27.332l-82.011-11.916c-19.891-2.89-37.076-15.377-45.972-33.4l-36.676-74.315
	c-6.919-14.018-20.38-22.386-36.012-22.386s-29.094,8.369-36.012,22.386l-36.676,74.315c-8.896,18.024-26.081,30.51-45.972,33.4
	L55.331,172.47c-15.469,2.248-27.588,12.465-32.419,27.332c-4.831,14.866-1.031,30.256,10.162,41.166l59.344,57.846
	c14.393,14.03,20.958,34.233,17.56,54.044l-14.008,81.68c-2.643,15.407,3.33,30.09,15.976,39.278
	c12.647,9.187,28.456,10.33,42.293,3.056l73.352-38.563C236.483,433.63,246.241,431.293,256,431.293z"/>
<path d="M346.437,449.308c-7.696,0-15.433-1.857-22.581-5.614l-55.046-28.94c-8.022-4.217-17.599-4.218-25.62,0l-55.047,28.94
	c-16.436,8.641-35.978,7.228-51-3.686c-15.022-10.914-22.403-29.064-19.265-47.365l10.513-61.295
	c1.532-8.932-1.428-18.041-7.917-24.367l-44.534-43.409c-13.297-12.961-17.992-31.983-12.254-49.644
	c5.738-17.659,20.718-30.289,39.093-32.959l61.544-8.943c8.969-1.303,16.717-6.933,20.727-15.06l27.523-55.768
	c8.218-16.651,24.858-26.995,43.426-26.995s35.208,10.344,43.427,26.995l27.523,55.768c4.01,8.126,11.759,13.757,20.727,15.06
	l61.544,8.943c18.375,2.67,33.355,15.3,39.093,32.959c5.738,17.659,1.043,36.681-12.254,49.643l-44.534,43.409
	c-6.489,6.326-9.448,15.435-7.917,24.367l10.513,61.295c3.139,18.301-4.243,36.451-19.266,47.365
	C366.368,446.174,356.436,449.308,346.437,449.308z M256,390.692c7.741,0,15.479,1.854,22.535,5.564l55.046,28.938
	c9.485,4.986,20.323,4.203,28.992-2.095c8.669-6.298,12.763-16.364,10.951-26.925l-10.513-61.294
	c-2.695-15.713,2.512-31.737,13.928-42.864l44.534-43.409c7.673-7.48,10.277-18.028,6.966-28.22s-11.619-17.195-22.223-18.736
	l-61.544-8.943c-15.776-2.293-29.408-12.195-36.463-26.492l-27.523-55.767c-4.743-9.609-13.971-15.346-24.686-15.346
	c-10.715,0-19.944,5.737-24.687,15.346l-27.523,55.768c-7.054,14.296-20.686,24.2-36.463,26.492l-61.544,8.943
	c-10.604,1.541-18.911,8.545-22.223,18.736s-0.707,20.74,6.966,28.22l44.534,43.409c11.416,11.128,16.623,27.152,13.928,42.864
	l-10.513,61.295c-1.811,10.561,2.283,20.626,10.951,26.925c8.669,6.298,19.507,7.083,28.992,2.095l55.046-28.938
	C240.519,392.547,248.261,390.692,256,390.692z"/>
<path d="M201.956,224.645c-5.107,0-9.572-3.746-10.327-8.949c-0.83-5.712,3.127-11.014,8.838-11.842
	c4.008-0.583,7.472-3.099,9.265-6.731l16.491-33.416c5.635-11.417,17.045-18.509,29.777-18.509c5.771,0,10.449,4.678,10.449,10.449
	s-4.678,10.449-10.449,10.449c-4.79,0-8.916,2.564-11.037,6.86l-16.491,33.416c-4.837,9.803-14.184,16.593-25.002,18.164
	C202.961,224.609,202.455,224.645,201.956,224.645z"/>
<path d="M171.535,229.383c-2.674,0-5.349-1.02-7.389-3.061c-4.08-4.08-4.08-10.697,0-14.779l0.097-0.097
	c4.08-4.08,10.697-4.08,14.779,0c4.08,4.08,4.08,10.697,0,14.779l-0.097,0.097C176.883,228.363,174.209,229.383,171.535,229.383z"/>
<g>
</g>
<g>
</g>
<g>
</g>
<g>
</g>
<g>
</g>
<g>
</g>
<g>
</g>
<g>
</g>
<g>
</g>
<g>
</g>
<g>
</g>
<g>
</g>
<g>
</g>
<g>
</g>
<g>
</g>
</svg>
