<?xml version="1.0" encoding="iso-8859-1"?>
<!-- Generator: Adobe Illustrator 19.0.0, SVG Export Plug-In . SVG Version: 6.00 Build 0)  -->
<svg version="1.1" id="Layer_1" xmlns="http://www.w3.org/2000/svg" xmlns:xlink="http://www.w3.org/1999/xlink" x="0px" y="0px"
	 viewBox="0 0 306.283 306.283" style="enable-background:new 0 0 306.283 306.283;" xml:space="preserve">
<g>
	<g>
		<g>
			<rect style="fill:#BF4132;" width="61.257" height="61.257"/>
			<rect y="61.257" style="fill:#FEDD3D;" width="61.257" height="61.257"/>
			<rect y="122.514" style="fill:#BF4132;" width="61.257" height="61.256"/>
			<rect y="183.77" style="fill:#FEDD3D;" width="61.257" height="61.257"/>
			<rect y="245.026" style="fill:#BF4132;" width="61.257" height="61.257"/>
		</g>
		<g>
			<rect x="61.257" style="fill:#FEDD3D;" width="61.256" height="61.257"/>
			<rect x="61.257" y="61.257" style="fill:#BF4132;" width="61.256" height="61.257"/>
			<rect x="61.257" y="122.514" style="fill:#FEDD3D;" width="61.256" height="61.256"/>
			<rect x="61.257" y="183.77" style="fill:#BF4132;" width="61.256" height="61.257"/>
			<rect x="61.257" y="245.026" style="fill:#FEDD3D;" width="61.256" height="61.257"/>
		</g>
		<g>
			<rect x="122.513" style="fill:#BF4132;" width="61.257" height="61.257"/>
			<rect x="122.513" y="61.257" style="fill:#FEDD3D;" width="61.257" height="61.257"/>
			<rect x="122.513" y="122.514" style="fill:#BF4132;" width="61.257" height="61.256"/>
			<rect x="122.513" y="183.77" style="fill:#FEDD3D;" width="61.257" height="61.257"/>
			<rect x="122.513" y="245.026" style="fill:#BF4132;" width="61.257" height="61.257"/>
		</g>
		<g>
			<rect x="183.77" style="fill:#FEDD3D;" width="61.257" height="61.257"/>
			<rect x="183.77" y="61.257" style="fill:#BF4132;" width="61.257" height="61.257"/>
			<rect x="183.77" y="122.514" style="fill:#FEDD3D;" width="61.257" height="61.256"/>
			<rect x="183.77" y="183.77" style="fill:#BF4132;" width="61.257" height="61.257"/>
			<rect x="183.77" y="245.026" style="fill:#FEDD3D;" width="61.257" height="61.257"/>
		</g>
		<g>
			<rect x="245.026" style="fill:#BF4132;" width="61.257" height="61.257"/>
			<rect x="245.026" y="61.257" style="fill:#FEDD3D;" width="61.257" height="61.257"/>
			<rect x="245.026" y="122.514" style="fill:#BF4132;" width="61.257" height="61.256"/>
			<rect x="245.026" y="183.77" style="fill:#FEDD3D;" width="61.257" height="61.257"/>
			<rect x="245.026" y="245.026" style="fill:#BF4132;" width="61.257" height="61.257"/>
		</g>
	</g>
	<g>
		<circle style="fill:#FFFFFF;" cx="153.142" cy="153.142" r="137.058"/>
		<circle style="fill:#D1D3D3;" cx="153.142" cy="153.142" r="102.793"/>
		<path style="fill:#C3C6C8;" d="M153.142,50.349c-56.771,0-102.793,46.022-102.793,102.793c0,2.807,0.116,5.585,0.336,8.336
			c4.243-52.873,48.492-94.46,102.457-94.46c53.966,0,98.214,41.587,102.457,94.46c0.221-2.751,0.336-5.529,0.336-8.336
			C255.935,96.37,209.914,50.349,153.142,50.349z"/>
	</g>
</g>
<g>
</g>
<g>
</g>
<g>
</g>
<g>
</g>
<g>
</g>
<g>
</g>
<g>
</g>
<g>
</g>
<g>
</g>
<g>
</g>
<g>
</g>
<g>
</g>
<g>
</g>
<g>
</g>
<g>
</g>
</svg>
