<?xml version="1.0" encoding="iso-8859-1"?>
<!-- Generator: Adobe Illustrator 19.0.0, SVG Export Plug-In . SVG Version: 6.00 Build 0)  -->
<svg version="1.1" id="Layer_1" xmlns="http://www.w3.org/2000/svg" xmlns:xlink="http://www.w3.org/1999/xlink" x="0px" y="0px"
	 viewBox="0 0 512 512" style="enable-background:new 0 0 512 512;" xml:space="preserve">
<circle style="fill:#EDB2D8;" cx="256" cy="256" r="245.801"/>
<g>
	<circle style="fill:#74C1F2;" cx="170.327" cy="341.673" r="42.327"/>
	<circle style="fill:#74C1F2;" cx="106.582" cy="233.052" r="17.849"/>
	<circle style="fill:#74C1F2;" cx="369.721" cy="293.227" r="17.849"/>
	<circle style="fill:#74C1F2;" cx="376.861" cy="159.618" r="17.849"/>
</g>
<path d="M437.019,74.981C388.667,26.628,324.381,0,256,0C187.62,0,123.333,26.628,74.98,74.981C26.628,123.333,0,187.619,0,256
	s26.628,132.667,74.98,181.019C123.333,485.372,187.62,512,256,512c68.381,0,132.667-26.628,181.019-74.981
	C485.372,388.667,512,324.381,512,256S485.372,123.333,437.019,74.981z M256,491.602c-129.911,0-235.602-105.69-235.602-235.602
	S126.089,20.398,256,20.398S491.602,126.089,491.602,256S385.911,491.602,256,491.602z"/>
<path d="M170.327,289.147c-28.963,0-52.526,23.563-52.526,52.526s23.563,52.526,52.526,52.526s52.526-23.563,52.526-52.526
	S199.289,289.147,170.327,289.147z M170.327,373.801c-17.715,0-32.127-14.413-32.127-32.128c0-17.715,14.412-32.127,32.127-32.127
	s32.128,14.413,32.128,32.127C202.454,359.388,188.042,373.801,170.327,373.801z"/>
<path d="M134.629,233.052c0-15.465-12.582-28.048-28.048-28.048s-28.048,12.583-28.048,28.048S91.116,261.1,106.582,261.1
	S134.629,248.517,134.629,233.052z M106.582,240.701c-4.218,0-7.649-3.431-7.649-7.649c0-4.218,3.431-7.649,7.649-7.649
	c4.218,0,7.649,3.431,7.649,7.649C114.231,237.27,110.8,240.701,106.582,240.701z"/>
<path d="M369.721,265.179c-15.465,0-28.048,12.583-28.048,28.048c0,15.465,12.583,28.048,28.048,28.048s28.048-12.583,28.048-28.048
	C397.769,277.762,385.186,265.179,369.721,265.179z M369.721,300.876c-4.218,0-7.649-3.431-7.649-7.649
	c0-4.218,3.431-7.649,7.649-7.649s7.649,3.431,7.649,7.649C377.371,297.445,373.94,300.876,369.721,300.876z"/>
<path d="M376.861,131.57c-15.465,0-28.048,12.583-28.048,28.048s12.583,28.048,28.048,28.048s28.048-12.583,28.048-28.048
	S392.326,131.57,376.861,131.57z M376.861,167.267c-4.218,0-7.649-3.431-7.649-7.649c0-4.218,3.431-7.649,7.649-7.649
	s7.649,3.431,7.649,7.649C384.51,163.836,381.079,167.267,376.861,167.267z"/>
<path d="M89.003,142.414c21.771-31.943,51.989-56.863,87.387-72.062c5.176-2.222,7.57-8.221,5.347-13.396
	c-2.222-5.176-8.22-7.572-13.396-5.347c-38.969,16.734-72.233,44.162-96.194,79.318c-3.172,4.654-1.97,11,2.683,14.173
	c1.758,1.198,3.756,1.772,5.735,1.772C83.826,146.87,87.03,145.31,89.003,142.414z"/>
<path d="M256,33.657c-11.452,0-22.956,0.879-34.194,2.614c-5.567,0.86-9.383,6.069-8.523,11.635
	c0.778,5.039,5.121,8.645,10.068,8.645c0.517,0,1.041-0.039,1.569-0.12c10.21-1.577,20.668-2.375,31.081-2.375
	c5.632,0,10.199-4.567,10.199-10.199S261.632,33.657,256,33.657z"/>
<g>
</g>
<g>
</g>
<g>
</g>
<g>
</g>
<g>
</g>
<g>
</g>
<g>
</g>
<g>
</g>
<g>
</g>
<g>
</g>
<g>
</g>
<g>
</g>
<g>
</g>
<g>
</g>
<g>
</g>
</svg>
