<?xml version="1.0" encoding="iso-8859-1"?>
<!-- Generator: Adobe Illustrator 19.0.0, SVG Export Plug-In . SVG Version: 6.00 Build 0)  -->
<svg version="1.1" id="Layer_1" xmlns="http://www.w3.org/2000/svg" xmlns:xlink="http://www.w3.org/1999/xlink" x="0px" y="0px"
	 viewBox="0 0 512.002 512.002" style="enable-background:new 0 0 512.002 512.002;" xml:space="preserve">
<path style="fill:#CC8073;" d="M503.831,256c0-11.83-4.194-22.691-11.177-31.156c4.553-9.989,5.795-21.558,2.734-32.986
	c-3.061-11.427-9.924-20.829-18.857-27.201c1.808-10.828,0.011-22.321-5.904-32.572s-14.979-17.55-25.251-21.395
	c-1.057-10.926-5.763-21.57-14.129-29.936c-8.366-8.365-19.009-13.072-29.936-14.129c-3.845-10.273-11.144-19.336-21.395-25.251
	c-10.251-5.916-21.744-7.713-32.572-5.905V476.53c10.828,1.807,22.321,0.011,32.572-5.905c10.251-5.915,17.55-14.979,21.395-25.251
	c10.926-1.057,21.569-5.763,29.936-14.129c8.366-8.366,13.072-19.009,14.129-29.936c10.273-3.844,19.336-11.143,25.251-21.395
	s7.713-21.744,5.904-32.572c8.933-6.373,15.796-15.773,18.857-27.201c3.061-11.428,1.819-22.996-2.734-32.986
	C499.637,278.691,503.831,267.83,503.831,256z"/>
<path style="fill:#E59F8F;" d="M461.455,224.844c6.057,8.464,9.695,19.325,9.695,31.156c0,11.83-3.638,22.691-9.695,31.156
	c3.943,9.989,5.022,21.559,2.364,32.986c-2.658,11.427-8.617,20.829-16.373,27.201c1.58,10.828,0.011,22.321-5.12,32.572
	c-5.131,10.251-12.996,17.55-21.929,21.395c-0.915,10.926-5,21.569-12.266,29.936c-7.255,8.366-16.493,13.072-25.981,14.129
	c-3.333,10.273-9.674,19.336-18.574,25.251c-4.826,3.203-11.035,5.033-16.231,5.904c-6.373,8.933-15.774,15.796-27.201,18.857
	c-11.427,3.061-22.996,1.819-32.986-2.734c-8.464,6.983-19.325,11.177-31.156,11.177c-11.83,0-22.691-4.194-31.156-11.177
	c-9.989,4.554-21.558,5.795-32.986,2.734c-11.427-3.061-20.829-9.924-27.201-18.857c-10.828,1.808-22.321,0.011-32.572-5.904
	c-10.251-5.915-17.55-14.979-21.395-25.251c-10.926-1.057-21.569-5.763-29.936-14.129c-8.366-8.366-13.072-19.009-14.129-29.936
	c-10.273-3.845-19.336-11.144-25.251-21.395c-5.915-10.251-7.713-21.744-5.904-32.572c-8.933-6.373-15.796-15.774-18.857-27.201
	c-3.061-11.427-1.819-22.996,2.734-32.986C12.365,278.691,8.171,267.83,8.171,256c0-11.83,4.194-22.691,11.177-31.156
	c-4.554-9.989-5.795-21.558-2.734-32.986s9.924-20.829,18.857-27.201c-1.808-10.828-0.011-22.321,5.904-32.572
	s14.979-17.55,25.251-21.395c1.057-10.926,5.763-21.569,14.129-29.936s19.009-13.072,29.936-14.129
	c3.845-10.273,11.144-19.336,21.395-25.251s21.744-7.713,32.572-5.904c6.373-8.933,15.774-15.796,27.201-18.857
	s22.996-1.819,32.986,2.734c8.464-6.983,19.325-11.177,31.156-11.177c11.83,0,22.691,4.194,31.156,11.177
	c9.989-4.554,21.558-5.795,32.986-2.734s20.829,9.924,27.201,18.857c5.196,0.871,11.406,2.702,16.231,5.904
	c8.9,5.915,15.24,14.979,18.574,25.251c9.488,1.057,18.726,5.763,25.981,14.129c7.266,8.366,11.351,19.009,12.266,29.936
	c8.933,3.845,16.798,11.144,21.929,21.395c5.131,10.251,6.7,21.744,5.12,32.572c7.756,6.373,13.715,15.774,16.373,27.201
	C466.477,203.286,465.398,214.855,461.455,224.844z"/>
<path style="fill:#CB2E3E;" d="M309.358,162.565c-2.429,0-4.837,0.142-7.19,0.425l-46.145,208.221
	c1.754-0.959,114.361-62.813,114.361-147.619C370.384,189.887,343.063,162.565,309.358,162.565z"/>
<path style="fill:#FF3B3B;" d="M302.168,162.99c23.084,3.584,40.982,29.347,40.982,60.601c0,84.665-85.526,146.465-87.127,147.619
	c-0.022,0.011-114.405-62.148-114.405-147.619c0-33.705,27.321-61.026,61.026-61.026c22.975,0,42.954,12.724,53.357,31.493
	C265.304,177.283,282.255,165.332,302.168,162.99z"/>
<g>
	<circle style="fill:#B26156;" cx="256.001" cy="53.847" r="8.17"/>
	<circle style="fill:#B26156;" cx="203.679" cy="60.733" r="8.17"/>
	<circle style="fill:#B26156;" cx="154.919" cy="80.929" r="8.17"/>
	<circle style="fill:#B26156;" cx="113.055" cy="113.054" r="8.17"/>
	<circle style="fill:#B26156;" cx="80.93" cy="154.918" r="8.17"/>
	<circle style="fill:#B26156;" cx="60.734" cy="203.678" r="8.17"/>
	<circle style="fill:#B26156;" cx="53.848" cy="256" r="8.17"/>
	<circle style="fill:#B26156;" cx="60.734" cy="308.322" r="8.17"/>
	<circle style="fill:#B26156;" cx="80.93" cy="357.082" r="8.17"/>
	<circle style="fill:#B26156;" cx="113.055" cy="398.946" r="8.17"/>
	<circle style="fill:#B26156;" cx="154.919" cy="431.071" r="8.17"/>
	<circle style="fill:#B26156;" cx="203.679" cy="451.268" r="8.17"/>
	<circle style="fill:#B26156;" cx="256.001" cy="458.153" r="8.17"/>
	<circle style="fill:#B26156;" cx="308.323" cy="451.268" r="8.17"/>
	<circle style="fill:#B26156;" cx="357.083" cy="431.071" r="8.17"/>
	<circle style="fill:#B26156;" cx="398.947" cy="398.946" r="8.17"/>
	<circle style="fill:#B26156;" cx="431.072" cy="357.082" r="8.17"/>
	<circle style="fill:#B26156;" cx="451.269" cy="308.322" r="8.17"/>
	<circle style="fill:#B26156;" cx="458.154" cy="256" r="8.17"/>
	<circle style="fill:#B26156;" cx="451.269" cy="203.678" r="8.17"/>
	<circle style="fill:#B26156;" cx="431.072" cy="154.918" r="8.17"/>
	<circle style="fill:#B26156;" cx="398.947" cy="113.054" r="8.17"/>
	<circle style="fill:#B26156;" cx="357.083" cy="80.929" r="8.17"/>
	<circle style="fill:#B26156;" cx="308.323" cy="60.733" r="8.17"/>
</g>
<path d="M309.361,154.395c-20.837,0-40.348,9.418-53.36,25.201c-13.012-15.784-32.522-25.201-53.36-25.201
	c-38.153,0-69.193,31.04-69.193,69.194c0,37.299,20.692,75.99,59.84,111.889c29.002,26.597,57.609,42.267,58.812,42.921
	c1.217,0.66,2.559,0.991,3.901,0.991c1.342,0,2.685-0.331,3.902-0.992c1.851-1.005,45.717-25.091,79.722-64.337
	c2.955-3.41,2.586-8.57-0.825-11.524c-3.41-2.955-8.571-2.587-11.524,0.825c-26.345,30.405-59.969,51.714-71.274,58.428
	c-19.6-11.649-106.213-67.167-106.213-138.201c0-29.144,23.71-52.854,52.853-52.854c19.177,0,36.886,10.454,46.214,27.28
	c1.44,2.597,4.176,4.208,7.146,4.208c2.971,0,5.706-1.611,7.146-4.208c9.328-16.826,27.037-27.28,46.214-27.28
	c29.143,0,52.853,23.71,52.853,52.854c0,17.696-5.448,35.878-16.194,54.042c-2.297,3.882-1.012,8.894,2.872,11.191
	c3.884,2.299,8.895,1.013,11.192-2.873c12.256-20.719,18.471-41.699,18.471-62.362C378.554,185.437,347.514,154.395,309.361,154.395
	z"/>
<path d="M512.001,256c0-11.576-3.539-22.898-10.048-32.38c3.833-10.845,4.322-22.697,1.326-33.878
	c-2.996-11.182-9.346-21.202-18.087-28.676c0.897-11.466-1.701-23.041-7.488-33.066c-5.787-10.023-14.514-18.059-24.893-23.018
	c-2.102-11.308-7.606-21.816-15.791-30.002c-8.184-8.184-18.695-13.688-30.002-15.79C402.059,48.81,394.023,40.083,384,34.296
	c-9.998-5.774-21.562-8.399-33.068-7.492c-7.474-8.739-17.494-15.088-28.674-18.083c-4.856-1.301-9.846-1.961-14.832-1.961
	c-6.543,0-12.931,1.101-19.053,3.281C278.893,3.537,267.573,0,256.001,0c-11.572,0-22.892,3.537-32.374,10.044
	c-6.122-2.18-12.51-3.281-19.053-3.281c-4.986,0-9.976,0.659-14.832,1.961c-11.181,2.996-21.2,9.343-28.674,18.083
	c-11.507-0.906-23.069,1.718-33.066,7.492c-10.024,5.787-18.061,14.512-23.018,24.892c-11.308,2.102-21.817,7.606-30.002,15.791
	S61.293,93.675,59.19,104.983c-10.378,4.959-19.106,12.995-24.892,23.018c-5.788,10.024-8.385,21.6-7.488,33.066
	c-8.741,7.474-15.091,17.495-18.087,28.676c-2.996,11.181-2.508,23.033,1.326,33.878C3.54,233.102,0.001,244.424,0.001,256
	c0,11.576,3.539,22.898,10.048,32.38c-3.833,10.845-4.321,22.697-1.326,33.878c2.996,11.182,9.346,21.202,18.087,28.676
	c-0.897,11.466,1.7,23.041,7.488,33.066c5.787,10.023,14.514,18.059,24.893,23.018c2.102,11.308,7.606,21.816,15.791,30.002
	c8.184,8.184,18.695,13.688,30.001,15.79c4.958,10.378,12.994,19.104,23.018,24.892c9.999,5.775,21.565,8.401,33.068,7.49
	c7.474,8.739,17.495,15.089,28.674,18.085c4.856,1.301,9.846,1.961,14.832,1.961c6.543,0,12.931-1.101,19.053-3.281
	c9.482,6.507,20.801,10.044,32.374,10.044c11.572,0,22.892-3.537,32.374-10.044c6.122,2.18,12.51,3.281,19.053,3.281
	c4.986,0,9.976-0.659,14.832-1.961c11.18-2.996,21.2-9.343,28.674-18.085c1.507,0.119,3.016,0.18,4.521,0.18
	c9.986,0,19.858-2.654,28.547-7.67c10.024-5.788,18.062-14.512,23.018-24.892c11.306-2.102,21.817-7.606,30.001-15.791
	c8.185-8.185,13.689-18.693,15.791-30.001c10.378-4.959,19.106-12.995,24.892-23.018c5.788-10.024,8.385-21.6,7.488-33.066
	c8.741-7.474,15.091-17.495,18.087-28.676c2.996-11.181,2.508-23.033-1.326-33.878C508.462,278.898,512.001,267.576,512.001,256z
	 M485.221,290.544c3.913,8.59,4.72,18.35,2.272,27.484c-2.449,9.136-8.027,17.186-15.711,22.667
	c-2.541,1.814-3.828,4.918-3.314,7.999c1.558,9.309-0.19,18.946-4.918,27.136c-4.728,8.19-12.201,14.521-21.042,17.828
	c-2.925,1.094-4.971,3.759-5.269,6.868c-0.906,9.395-5.087,18.251-11.775,24.939c-6.688,6.688-15.544,10.87-24.939,11.775
	c-3.109,0.3-5.775,2.345-6.868,5.271c-3.306,8.84-9.638,16.313-17.827,21.04c-8.177,4.72-17.867,6.473-27.136,4.918
	c-3.081-0.522-6.185,0.77-7.999,3.314c-5.482,7.683-13.531,13.263-22.666,15.711c-3.477,0.93-7.044,1.403-10.603,1.403
	c-5.848,0-11.529-1.236-16.883-3.676c-2.842-1.294-6.173-0.855-8.583,1.13c-7.282,6.002-16.502,9.308-25.958,9.308
	c-9.457,0-18.676-3.305-25.961-9.309c-1.491-1.229-3.335-1.865-5.197-1.865c-1.147,0-2.302,0.242-3.386,0.735
	c-5.354,2.439-11.034,3.676-16.883,3.676c-3.559,0-7.126-0.473-10.602-1.403c-9.135-2.448-17.185-8.027-22.666-15.711
	c-1.814-2.544-4.918-3.835-7.999-3.314c-9.269,1.553-18.96-0.198-27.137-4.918c-8.19-4.728-14.521-12.2-17.827-21.04
	c-1.094-2.926-3.76-4.971-6.868-5.271c-9.395-0.905-18.251-5.087-24.939-11.774c-6.688-6.689-10.87-15.545-11.775-24.94
	c-0.3-3.109-2.344-5.775-5.269-6.868c-8.841-3.307-16.314-9.64-21.042-17.828c-4.729-8.191-6.476-17.827-4.918-27.136
	c0.515-3.081-0.771-6.185-3.314-7.999c-7.683-5.481-13.262-13.531-15.71-22.667c-2.448-9.134-1.641-18.895,2.272-27.484
	c1.294-2.841,0.856-6.173-1.131-8.583c-6.001-7.282-9.308-16.502-9.308-25.959s3.306-18.677,9.309-25.961
	c1.986-2.41,2.425-5.742,1.131-8.583c-3.913-8.59-4.72-18.35-2.272-27.484c2.449-9.136,8.028-17.186,15.711-22.667
	c2.541-1.814,3.828-4.918,3.314-7.999c-1.558-9.309,0.19-18.946,4.918-27.136c4.728-8.19,12.201-14.521,21.042-17.828
	c2.925-1.094,4.971-3.759,5.269-6.868c0.906-9.395,5.087-18.251,11.775-24.939s15.544-10.87,24.939-11.775
	c3.109-0.3,5.775-2.345,6.868-5.27c3.307-8.841,9.639-16.314,17.828-21.041c8.176-4.721,17.864-6.468,27.137-4.92
	c3.077,0.515,6.184-0.771,7.998-3.314c5.481-7.682,13.53-13.262,22.666-15.71c3.477-0.93,7.044-1.403,10.603-1.403
	c5.848,0,11.529,1.236,16.883,3.676c2.842,1.294,6.173,0.856,8.583-1.13c7.281-6.002,16.501-9.308,25.957-9.308
	c9.457,0,18.676,3.305,25.961,9.309c2.41,1.986,5.742,2.426,8.583,1.13c5.354-2.439,11.034-3.676,16.883-3.676
	c3.559,0,7.126,0.473,10.602,1.403c9.136,2.448,17.186,8.028,22.666,15.71c1.814,2.543,4.915,3.827,7.998,3.314
	c9.274-1.55,18.961,0.198,27.138,4.92c8.19,4.728,14.521,12.2,17.827,21.041c1.094,2.925,3.759,4.971,6.868,5.27
	c9.395,0.905,18.251,5.087,24.939,11.774c6.688,6.689,10.87,15.545,11.775,24.94c0.3,3.109,2.344,5.775,5.269,6.868
	c8.841,3.307,16.314,9.64,21.042,17.828c4.729,8.191,6.476,17.827,4.918,27.136c-0.515,3.081,0.771,6.185,3.314,7.999
	c7.683,5.481,13.262,13.531,15.71,22.667c2.448,9.134,1.641,18.895-2.272,27.484c-1.294,2.841-0.856,6.173,1.131,8.583
	c6.001,7.282,9.308,16.502,9.308,25.959s-3.306,18.677-9.309,25.961C484.366,284.37,483.927,287.703,485.221,290.544z"/>
<g>
</g>
<g>
</g>
<g>
</g>
<g>
</g>
<g>
</g>
<g>
</g>
<g>
</g>
<g>
</g>
<g>
</g>
<g>
</g>
<g>
</g>
<g>
</g>
<g>
</g>
<g>
</g>
<g>
</g>
</svg>
