<?xml version="1.0" encoding="iso-8859-1"?>
<!-- Generator: Adobe Illustrator 19.0.0, SVG Export Plug-In . SVG Version: 6.00 Build 0)  -->
<svg version="1.1" id="Capa_1" xmlns="http://www.w3.org/2000/svg" xmlns:xlink="http://www.w3.org/1999/xlink" x="0px" y="0px"
	 viewBox="0 0 470.438 470.438" style="enable-background:new 0 0 470.438 470.438;" xml:space="preserve">
<path style="fill:#AA7135;" d="M419.863,134.255c-13.842-18.636-39.83-23.533-60.739-13.449l-62.442,30.114
	c20.625-20.15,31.435-50.304,24.386-82.664c-7.166-32.894-33.875-59.366-66.827-66.263C197.331-9.919,147.219,33.187,147.219,88
	c0,24.672,10.18,46.942,26.539,62.921l-61.61-29.711c-23.409-11.289-52.843-3.878-65.341,18.908
	c-13.33,24.305-3.45,54.499,21.202,66.386l62.426,30.105c5.533,2.668,9.05,8.269,9.05,14.412v42.478
	c0,12.481-3.649,24.689-10.498,35.122L84.775,395.97c-14.617,22.117-8.535,51.894,13.582,66.509
	c22.117,14.615,51.894,8.534,66.512-13.585l57.885-68.232c6.39-7.533,18.012-7.533,24.402,0l57.885,68.232
	c14.617,22.118,44.394,28.2,66.512,13.585c22.117-14.614,28.199-44.392,13.582-66.509l-43.682-66.545
	c-6.849-10.433-10.498-22.641-10.498-35.121V251.02c0-6.143,3.517-11.743,9.05-14.412l62.426-30.105
	C429.105,193.639,438.489,159.333,419.863,134.255z"/>
<path style="fill:#A06A33;" d="M419.861,134.256c-13.845-18.638-39.836-23.533-60.747-13.446l-63.046,30.413
	c-0.086,0.083-0.191,0.141-0.278,0.222l-0.118,0.058c-16.424,15.89-41.68,26.198-68.438,23.829l-37.488,28.713l17.026,17.027
	c3.15,3.15,8.052,2.898,11.347-0.102c4.52-4.114,10.494-6.638,17.099-6.638c14.172,0,25.664,11.491,25.664,25.667
	c0,12.512-8.951,22.934-20.801,25.206c-2.83,0.542-4.863,3.011-4.863,5.893v1.802c0,2.875,2.039,5.35,4.863,5.892
	c11.85,2.273,20.801,12.694,20.801,25.207c0,12.14-8.426,22.311-19.751,24.982c-3.506,0.826-5.913,4.034-5.913,7.638v38.45
	c4.41,0.074,8.805,1.902,11.938,5.593l57.883,68.233c14.617,22.118,44.394,28.2,66.512,13.585
	c22.117-14.614,28.199-44.392,13.582-66.509c-44.262-67.425-54.18-76.994-54.18-101.666c0-66.193-12.429-47.338,71.477-87.801
	C429.103,193.639,438.49,159.334,419.861,134.256z"/>
<path style="fill:#9E6632;" d="M322.849,80h-0.297c0.238,2.638,0.402,5.3,0.402,8c0,1.522-0.152,3.006-0.226,4.51
	C323.087,88.365,323.22,84.195,322.849,80z"/>
<g>
	
		<rect x="61.122" y="165.006" transform="matrix(-0.4343 0.9008 -0.9008 -0.4343 312.3539 149.845)" style="fill:#D5B99B;" width="96.003" height="16"/>
	<polygon style="fill:#D5B99B;" points="182.224,428.436 102.365,369.175 93.571,382.567 171.857,440.657 	"/>
</g>
<g>
	<polygon style="fill:#BB9470;" points="298.052,440.657 376.337,382.567 367.544,369.173 287.685,428.436 	"/>
	
		<rect x="352.883" y="125.255" transform="matrix(-0.9007 0.4344 -0.4344 -0.9007 761.1907 172.5384)" style="fill:#BB9470;" width="15.992" height="95.998"/>
</g>
<g>
	<circle style="fill:#010101;" cx="203.217" cy="63.999" r="12"/>
	<circle style="fill:#010101;" cx="267.217" cy="63.999" r="12"/>
</g>
<circle style="fill:#E9462E;" cx="235.217" cy="303.967" r="16"/>
<g>
	<path style="fill:none;stroke:#FFFFFF;stroke-width:2;stroke-linecap:round;stroke-miterlimit:10;" d="M269.799,108.12
		c-6.933,11.89-19.823,19.88-34.579,19.88c-14.842,0-27.797-8.084-34.701-20.09"/>
</g>
<circle style="fill:#FCD95F;" cx="235.217" cy="239.967" r="16"/>
<g>
	<path style="fill:#77C482;" d="M198.451,162.771c-5.314-2.582-11.497,1.287-11.497,7.195v28.076c0,5.908,6.183,9.778,11.497,7.195
		l36.503-13.082V176L198.451,162.771z"/>
	<path style="fill:#77C482;" d="M271.458,162.771c5.314-2.582,11.497,1.287,11.497,7.195v28.076c0,5.908-6.183,9.778-11.497,7.195
		l-36.503-13.082V176L271.458,162.771z"/>
</g>
<path style="fill:#56B46F;" d="M278.799,204.954l-32.914-32.914l-10.93,3.96v16.156l36.504,13.081
	C273.97,206.458,276.642,206.151,278.799,204.954z"/>
<circle style="fill:#77C482;" cx="235.217" cy="184.007" r="16"/>
<g>
</g>
<g>
</g>
<g>
</g>
<g>
</g>
<g>
</g>
<g>
</g>
<g>
</g>
<g>
</g>
<g>
</g>
<g>
</g>
<g>
</g>
<g>
</g>
<g>
</g>
<g>
</g>
<g>
</g>
</svg>
